{"title":"[KPOP] T-ara Hyomin - Nice Body M/V (MelOn 1080p)","uid":10472432,"size":312563988,"categoryP":"video","categoryS":"music_videos","magnet":"?xt=urn:btih:4c6de269b5da54154ff90c94874ab1f6b1cc4030&amp;dn=%5BKPOP%5D+T-ara+Hyomin+-+Nice+Body+M%2FV+%28MelOn+1080p%29&amp;tr=udp%3A%2F%2Ftracker.openbittorrent.com%3A80&amp;tr=udp%3A%2F%2Fopen.demonii.com%3A1337&amp;tr=udp%3A%2F%2Ftracker.coppersurfer.tk%3A6969&amp;tr=udp%3A%2F%2Fexodus.desync.com%3A6969","seeders":3,"leechers":1,"uploader":"sweetvirus12","files":-1,"time":1404268079,"description":"Artist: Hyomin (T-ara)\nM/V: Nice Body M/V (MelOn 1080p)\n\nSource: http://www.melon.com/video/detail.htm?mvId=50126054&amp;menuId=60030101\n\nFormat                                   : MPEG-4\nFormat profile                           : Base Media / Version 2\nCodec ID                                 : mp42\nFile size                                : 298 MiB\nDuration                                 : 4mn 3s\nOverall bit rate mode                    : Variable\nOverall bit rate                         : 10.3 Mbps\nWriting application                      : TMPGEnc Video Mastering Works 5 Version. 5.4.0.100\n\nVideo\nID                                       : 2\nFormat                                   : AVC\nFormat/Info                              : Advanced Video Codec\nFormat profile                           : &lt;a class=&quot;__cf_email__&quot; href=&quot;/cdn-cgi/l/email-protection&quot; data-cfemail=&quot;db99baa8beb7b2b5be9b97eff5ea&quot;&gt;[email&amp;#160;protected]&lt;/a&gt;&lt;script cf-hash='f9e31' type=&quot;text/javascript&quot;&gt;\n/* &lt;![CDATA[ */!function(){try{var t=&quot;currentScript&quot;in document?document.currentScript:function(){for(var t=document.getElementsByTagName(&quot;script&quot;),e=t.length;e--;)if(t[e].getAttribute(&quot;cf-hash&quot;))return t[e]}();if(t&amp;&amp;t.previousSibling){var e,r,n,i,c=t.previousSibling,a=c.getAttribute(&quot;data-cfemail&quot;);if(a){for(e=&quot;&quot;,r=parseInt(a.substr(0,2),16),n=2;a.length-n;n+=2)i=parseInt(a.substr(n,2),16)^r,e+=String.fromCharCode(i);e=document.createTextNode(e),c.parentNode.replaceChild(e,c)}}}catch(u){}}();/* ]]&gt; */&lt;/script&gt;\nFormat settings, CABAC                   : No\nFormat settings, ReFrames                : 4 frames\nCodec ID                                 : avc1\nCodec ID/Info                            : Advanced Video Coding\nDuration                                 : 4mn 3s\nBit rate mode                            : Constant\nBit rate                                 : 10 000 Kbps / 10 000 Kbps\nWidth                                    : 1 920 pixels\nHeight                                   : 1 080 pixels\nDisplay aspect ratio                     : 16:9\nFrame rate mode                          : Constant\nFrame rate                               : 23.976 fps\nStandard                                 : Component\nColor space                              : YUV\nChroma subsampling                       : 4:2:0\nBit depth                                : 8 bits\nScan type                                : Progressive\nBits/(Pixel*Frame)                       : 0.201\nStream size                              : 289 MiB (97%)\nWriting library                          : x264 core 125\nColor primaries                          : BT.709\nTransfer characteristics                 : BT.709\nMatrix coefficients                      : BT.709\n\nAudio\nID                                       : 1\nFormat                                   : AAC\nFormat/Info                              : Advanced Audio Codec\nFormat profile                           : LC\nCodec ID                                 : 40\nDuration                                 : 4mn 3s\nBit rate mode                            : Variable\nBit rate                                 : 317 Kbps\nMaximum bit rate                         : 576 Kbps\nChannel(s)                               : 2 channels\nChannel positions                        : Front: L R\nSampling rate                            : 48.0 KHz\nCompression mode                         : Lossy\nStream size                              : 9.21 MiB (3%)\n","torrent":{"xt":"urn:btih:4c6de269b5da54154ff90c94874ab1f6b1cc4030","amp;dn":"%5BKPOP%5D+T-ara+Hyomin+-+Nice+Body+M%2FV+%28MelOn+1080p%29","amp;tr":["udp%3A%2F%2Ftracker.openbittorrent.com%3A80","udp%3A%2F%2Fopen.demonii.com%3A1337","udp%3A%2F%2Ftracker.coppersurfer.tk%3A6969","udp%3A%2F%2Fexodus.desync.com%3A6969"],"infoHash":"4c6de269b5da54154ff90c94874ab1f6b1cc4030","infoHashBuffer":{"type":"Buffer","data":[76,109,226,105,181,218,84,21,79,249,12,148,135,74,177,246,177,204,64,48]},"announce":[],"urlList":[]}}